<?xml version="1.0" standalone="no"?>
<!DOCTYPE svg PUBLIC "-//W3C//DTD SVG 20010904//EN"
 "http://www.w3.org/TR/2001/REC-SVG-20010904/DTD/svg10.dtd">
<svg version="1.0" xmlns="http://www.w3.org/2000/svg"
 width="500.000000pt" height="153.000000pt" viewBox="0 0 500.000000 153.000000"
 preserveAspectRatio="xMidYMid meet">

<g transform="translate(0.000000,153.000000) scale(0.100000,-0.100000)"
fill="#000000" stroke="none">
<path d="M1773 1425 c-18 -8 -38 -26 -45 -40 -8 -18 -34 -37 -82 -59 -39 -18
-82 -43 -96 -55 -20 -17 -13 -15 30 8 30 17 71 37 91 45 l35 15 -14 -69 -15
-70 -55 -15 c-30 -9 -52 -19 -49 -22 3 -3 20 0 38 6 61 21 67 17 58 -39 -11
-68 -18 -92 -37 -112 -18 -22 -35 -13 -26 14 4 14 2 18 -5 14 -16 -10 -13 -43
5 -50 31 -12 61 36 75 118 12 73 14 76 40 76 15 0 35 3 44 6 14 6 14 3 4 -19
-12 -27 -7 -57 11 -57 6 0 18 16 27 35 12 25 23 35 40 35 13 0 37 7 52 15 l29
14 -29 -52 c-40 -73 -36 -147 7 -130 22 8 16 22 -6 16 -16 -4 -20 0 -20 18 0
25 37 108 67 148 17 24 17 24 -2 19 -11 -3 -29 -9 -40 -13 -16 -7 -18 -6 -7 6
14 15 16 49 3 49 -12 0 -61 -58 -61 -72 0 -7 -5 -7 -14 1 -9 8 -28 8 -66 1
-29 -5 -56 -10 -60 -10 -8 0 6 89 20 125 7 17 29 30 90 52 57 20 80 32 78 43
-4 20 -74 24 -115 5z m93 -2 c13 -5 -2 -13 -51 -30 -38 -12 -71 -21 -74 -18
-9 10 23 33 59 43 46 13 45 13 66 5z m14 -193 c-6 -11 -13 -20 -16 -20 -2 0 0
9 6 20 6 11 13 20 16 20 2 0 0 -9 -6 -20z m-82 -60 c-8 -25 -28 -51 -28 -37 0
15 24 67 30 67 5 0 4 -14 -2 -30z"/>
<path d="M2248 1401 c-14 -15 -30 -42 -37 -60 -8 -17 -17 -31 -22 -31 -5 0 -2
16 6 36 19 46 19 64 0 64 -8 0 -25 -20 -37 -45 l-22 -45 -57 0 c-52 0 -126
-17 -116 -26 2 -3 26 0 53 6 27 6 63 9 81 5 l31 -6 -14 -52 c-32 -118 -27
-267 8 -267 9 0 9 3 0 12 -7 7 -12 43 -12 92 0 69 4 90 30 144 30 64 60 89 35
29 -32 -76 -42 -227 -16 -227 5 0 11 22 14 48 3 27 13 64 21 83 9 19 13 24 10
11 -8 -32 21 -39 56 -14 l29 22 3 -23 c2 -12 11 -23 21 -25 21 -4 77 44 77 65
0 7 -15 -4 -33 -24 -20 -21 -39 -33 -45 -29 -17 10 -15 46 2 46 22 0 41 29 28
42 -8 8 -24 -1 -61 -35 -28 -26 -53 -47 -56 -47 -4 0 -5 15 -4 33 5 52 -14 46
-38 -13 -16 -40 -22 -48 -23 -30 0 14 14 53 32 88 32 61 33 62 74 62 24 0 46
5 49 10 4 7 -8 8 -34 4 -23 -4 -41 -4 -41 0 0 4 11 29 25 56 14 27 25 54 25
60 0 18 -18 11 -42 -19z m2 -40 c-11 -22 -25 -43 -31 -47 -11 -7 1 21 29 64
23 35 24 26 2 -17z m-71 -19 c-6 -18 -15 -32 -20 -32 -12 0 -11 6 7 41 19 39
28 33 13 -9z m-34 -72 c-4 -12 -9 -19 -12 -17 -3 3 -2 15 2 27 4 12 9 19 12
17 3 -3 2 -15 -2 -27z"/>
<path d="M3001 1384 c-11 -14 -23 -34 -26 -45 -5 -15 -16 -19 -58 -19 -63 0
-130 -17 -121 -31 4 -6 11 -6 19 1 14 12 129 19 139 10 11 -12 -18 -90 -43
-114 -26 -25 -27 -25 -64 -9 -20 10 -37 21 -37 26 0 5 14 22 30 39 17 17 28
33 26 36 -6 5 -17 -6 -99 -102 -20 -23 -39 -36 -45 -32 -17 10 -15 46 2 46 22
0 41 29 28 42 -9 9 -17 7 -34 -9 -13 -11 -38 -28 -55 -37 l-33 -16 17 35 c13
26 14 38 5 47 -28 28 -86 -50 -118 -160 l-14 -47 5 60 c5 49 16 76 65 161 33
57 60 110 60 118 0 61 -92 -70 -119 -169 -17 -65 -32 -184 -25 -211 9 -35 21
-29 28 15 6 42 80 127 134 155 30 16 31 16 34 -11 4 -38 33 -41 67 -9 22 21
33 25 59 20 43 -9 47 -19 23 -53 -25 -35 -26 -41 -5 -41 8 0 21 15 29 33 7 18
23 41 36 52 l22 20 -5 -55 c-7 -70 3 -142 20 -148 11 -3 12 0 3 16 -6 11 -11
53 -11 92 0 57 6 83 29 135 l30 65 70 0 c38 0 72 4 76 9 3 6 -9 8 -29 4 -19
-3 -51 -2 -70 1 l-35 7 15 34 c27 64 12 87 -25 39z m14 -30 c-8 -20 -15 -38
-15 -40 0 -2 -4 -4 -10 -4 -11 0 -3 24 18 58 21 33 24 27 7 -14z m-398 -16
c-13 -24 -30 -54 -36 -66 -7 -13 -15 -22 -18 -19 -10 10 59 127 75 127 2 0 -7
-19 -21 -42z m361 -63 c-6 -14 -13 -23 -15 -21 -5 5 15 46 22 46 3 0 -1 -11
-7 -25z m-338 -45 c0 -21 -38 -85 -65 -110 l-27 -25 18 45 c28 72 74 128 74
90z"/>
<path d="M3298 1393 c-9 -10 -30 -46 -47 -80 -21 -42 -35 -61 -45 -57 -34 13
-132 -124 -106 -150 12 -12 20 -4 86 78 l30 39 -4 -117 c-4 -98 -2 -116 10
-116 10 0 27 32 48 86 25 64 36 81 42 70 13 -23 41 -19 68 9 19 21 30 24 55
19 45 -9 50 -19 26 -52 -25 -36 -26 -42 -5 -42 8 0 21 15 29 33 8 19 21 39 30
47 13 11 15 9 13 -11 -4 -34 28 -36 61 -5 18 17 34 24 45 20 11 -4 36 9 76 40
33 26 60 46 60 43 0 -25 -42 -113 -73 -152 -45 -56 -71 -111 -63 -131 11 -28
38 1 77 85 39 82 73 131 91 131 4 0 8 -18 8 -40 0 -55 14 -50 32 13 14 46 16
48 17 20 0 -17 6 -35 11 -38 12 -7 70 50 70 69 0 6 -12 -4 -26 -21 -34 -44
-46 -41 -44 10 3 63 0 66 -21 22 -19 -42 -26 -35 -9 9 5 15 6 26 0 26 -5 0
-11 -9 -15 -20 -3 -11 -19 -29 -35 -40 l-29 -20 10 32 c5 18 9 41 9 51 0 17
-2 17 -35 -3 -29 -18 -35 -19 -35 -6 0 31 -30 15 -96 -51 -67 -68 -90 -73 -61
-13 19 37 3 40 -33 5 -25 -24 -26 -24 -63 -8 -20 10 -37 21 -37 26 0 5 14 22
30 39 17 17 28 33 26 36 -6 5 -17 -6 -99 -102 -20 -23 -39 -36 -45 -32 -17 10
-15 46 2 46 7 0 19 7 26 15 10 13 11 18 1 28 -19 18 -52 -26 -91 -119 -46
-114 -54 -115 -46 -9 8 116 19 153 67 227 21 34 39 65 39 70 0 14 -16 9 -32
-9z m-134 -212 c-27 -33 -50 -58 -52 -56 -8 7 48 94 70 109 38 27 32 9 -18
-53z m536 45 c0 -8 -13 -24 -30 -36 -25 -18 -30 -19 -30 -6 0 18 34 56 50 56
6 0 10 -6 10 -14z m-10 -185 c-28 -57 -58 -93 -43 -54 9 23 63 113 69 113 2 0
-9 -27 -26 -59z"/>
<path d="M500 1303 c16 -32 43 -76 60 -99 17 -22 38 -67 46 -100 9 -32 25 -69
36 -81 18 -19 19 -25 8 -38 -11 -13 -10 -20 7 -43 16 -21 18 -31 9 -45 -8 -12
-8 -22 2 -38 11 -17 11 -23 0 -36 -10 -13 -8 -18 11 -34 13 -11 18 -19 12 -19
-17 0 -35 -40 -22 -53 7 -7 7 -15 -1 -25 -11 -12 -5 -13 42 -7 l55 7 -35 -28
c-19 -15 -37 -29 -39 -31 -2 -2 -1 -6 2 -10 4 -3 19 -1 33 6 36 16 40 8 14
-27 -12 -17 -20 -34 -16 -40 9 -14 -30 -119 -64 -172 -17 -26 -30 -52 -30 -58
0 -7 -4 -12 -8 -12 -5 0 -57 -52 -116 -115 -59 -63 -104 -115 -99 -115 5 0 47
42 93 94 47 51 87 89 89 84 1 -5 12 -1 24 9 21 19 -48 -90 -90 -140 -41 -50
-25 -11 23 53 25 34 44 64 41 66 -2 2 -33 -30 -68 -72 -34 -41 -76 -85 -91
-96 -16 -11 -26 -24 -22 -29 4 -6 11 -6 19 1 8 7 19 9 24 6 5 -4 13 -1 17 5 5
8 3 9 -7 4 -8 -5 -12 -6 -9 -2 3 3 10 6 15 7 6 1 16 7 24 13 12 10 12 8 2 -13
l-12 -25 18 25 c88 122 161 206 188 213 53 16 109 44 146 74 31 25 35 32 27
53 -17 45 0 86 62 154 81 90 101 132 103 219 l2 71 -30 6 c-76 16 -231 119
-320 212 l-60 62 55 -50 c60 -54 133 -108 195 -144 27 -15 -32 49 -175 194
-118 119 -216 216 -218 216 -1 0 11 -26 28 -57z m314 -418 c50 -9 114 -19 141
-25 46 -9 43 -9 -30 -5 -76 3 -219 35 -233 51 -4 4 2 4 12 0 11 -4 61 -13 110
-21z m193 -72 c5 -15 -101 -100 -179 -142 -78 -42 -74 -37 22 28 41 28 93 66
115 86 l40 35 -51 -31 c-59 -35 -207 -89 -244 -88 -14 0 9 10 50 23 41 12 93
32 115 45 22 12 31 19 20 16 -11 -4 -56 -8 -100 -10 l-80 -4 65 9 c36 6 94 18
130 29 72 21 91 22 97 4z"/>
<path d="M3576 1254 c-9 -24 -2 -26 12 -4 7 11 8 20 3 20 -5 0 -12 -7 -15 -16z"/>
<path d="M1302 1146 c-96 -46 -162 -71 -176 -69 -34 7 -101 -14 -135 -43 -16
-13 -41 -45 -55 -69 l-25 -45 39 -20 c39 -20 40 -20 107 -2 l67 19 21 62 22
62 141 83 c206 120 206 122 -6 22z"/>
<path d="M2400 545 c0 -238 2 -275 15 -275 13 0 15 37 15 275 0 238 -2 275
-15 275 -13 0 -15 -37 -15 -275z"/>
<path d="M2804 806 c-63 -28 -104 -110 -104 -206 0 -128 69 -220 164 -220 27
0 46 9 75 36 l40 35 3 -32 c2 -18 8 -34 15 -36 9 -3 13 22 15 94 l3 98 28 3
c15 2 27 8 27 13 0 5 -40 9 -90 9 -49 0 -90 -4 -90 -9 0 -5 12 -11 28 -13 26
-3 27 -5 27 -60 0 -49 -4 -61 -30 -88 -36 -38 -68 -38 -105 -2 -34 35 -44 89
-38 205 5 95 22 136 63 156 44 21 92 -8 128 -79 15 -30 32 -56 37 -58 6 -2 10
29 10 77 0 62 -3 81 -14 81 -7 0 -16 -9 -19 -21 l-6 -21 -29 22 c-37 27 -98
34 -138 16z"/>
<path d="M1376 778 c-7 -18 -37 -100 -66 -183 -55 -156 -71 -185 -102 -185
-10 0 -18 -4 -18 -10 0 -6 35 -10 85 -10 47 0 85 4 85 9 0 5 -12 11 -27 13
-32 3 -40 28 -24 71 10 25 14 27 74 27 62 0 63 0 75 -33 18 -51 15 -67 -12
-67 -14 0 -28 -4 -31 -10 -4 -6 30 -10 94 -10 61 0 101 4 101 10 0 6 -13 10
-29 10 -33 0 -26 -15 -115 240 -29 85 -59 156 -65 158 -6 2 -17 -11 -25 -30z
m54 -230 c0 -4 -22 -8 -49 -8 l-50 0 26 77 26 77 24 -69 c12 -38 23 -73 23
-77z"/>
<path d="M3100 800 c0 -5 9 -10 20 -10 19 0 20 -7 20 -189 0 -187 0 -189 -22
-196 -21 -7 -20 -8 9 -12 18 -2 50 -2 70 0 34 3 35 5 15 12 -23 8 -24 11 -20
91 2 64 8 89 24 110 59 80 84 52 84 -92 0 -96 -1 -102 -22 -109 -20 -7 -18 -9
15 -12 20 -2 52 -2 70 0 29 4 30 5 10 12 -22 7 -23 13 -23 99 0 113 -6 133
-40 151 -32 16 -66 10 -97 -18 l-23 -20 0 96 0 97 -45 0 c-25 0 -45 -4 -45
-10z"/>
<path d="M1686 774 c-9 -22 12 -46 38 -42 15 2 21 10 21 28 0 20 -6 26 -26 28
-18 2 -29 -3 -33 -14z"/>
<path d="M1854 775 c-9 -23 3 -45 25 -45 26 0 45 32 29 48 -17 17 -48 15 -54
-3z"/>
<path d="M3454 775 c-9 -23 3 -45 25 -45 26 0 45 32 29 48 -17 17 -48 15 -54
-3z"/>
<path d="M3864 775 c-9 -23 3 -45 24 -45 25 0 44 23 36 44 -8 20 -53 21 -60 1z"/>
<path d="M2037 730 c-6 -47 -22 -70 -48 -70 -11 0 -19 -4 -19 -10 0 -5 11 -10
25 -10 l25 0 0 -110 c0 -97 2 -112 20 -130 11 -11 29 -20 40 -20 29 0 70 44
70 75 0 35 -14 31 -25 -7 -7 -23 -16 -33 -30 -33 -19 0 -20 8 -23 113 l-3 112
36 0 c19 0 35 5 35 10 0 6 -16 10 -35 10 l-35 0 0 55 c0 40 -4 55 -14 55 -8 0
-15 -16 -19 -40z"/>
<path d="M3645 663 c-34 -8 -55 -34 -55 -68 0 -39 28 -67 90 -91 67 -25 86
-47 72 -79 -9 -19 -19 -25 -42 -25 -33 0 -60 22 -85 69 -24 47 -35 37 -35 -29
0 -63 5 -71 25 -44 11 15 14 15 43 0 75 -39 144 2 133 79 -4 29 -21 44 -93 79
-52 25 -64 36 -66 58 -7 57 83 43 110 -18 17 -37 28 -29 28 21 0 41 -13 61
-22 35 -2 -7 -16 -5 -40 5 -21 8 -39 14 -40 14 -2 -1 -12 -4 -23 -6z"/>
<path d="M4140 663 c-8 -3 -27 -16 -41 -30 l-26 -24 4 25 c5 25 3 26 -41 26
-25 0 -46 -4 -46 -10 0 -5 9 -10 20 -10 19 0 20 -7 20 -114 0 -109 -1 -114
-22 -121 -20 -7 -18 -9 15 -12 20 -2 52 -2 70 0 30 4 31 4 9 12 -23 8 -24 11
-20 91 3 84 18 121 61 148 31 20 42 -8 45 -123 4 -106 3 -108 -20 -116 -21 -8
-21 -8 9 -12 18 -2 50 -2 70 0 33 3 35 5 16 12 -22 7 -23 13 -23 101 0 112 -8
138 -51 153 -17 6 -32 11 -33 10 -1 0 -8 -3 -16 -6z"/>
<path d="M4403 663 c-67 -12 -97 -110 -49 -158 l23 -23 -28 -21 c-36 -27 -36
-44 -4 -69 25 -20 25 -21 5 -27 -21 -7 -36 -45 -26 -70 8 -23 68 -45 121 -45
112 0 169 69 112 136 -22 25 -31 28 -110 32 -64 3 -87 8 -87 18 0 19 33 34 73
34 19 0 49 10 68 23 33 22 34 26 34 87 0 40 4 65 12 67 8 3 11 -6 10 -24 -2
-22 2 -28 18 -28 31 0 34 52 3 64 -24 9 -49 4 -59 -12 -4 -5 -14 -5 -25 1 -26
13 -65 20 -91 15z m61 -26 c25 -19 33 -90 12 -122 -42 -64 -109 1 -86 85 13
49 39 62 74 37z m76 -282 c18 -21 5 -60 -25 -73 -43 -20 -122 -15 -145 8 -46
46 -7 80 91 80 47 0 70 -4 79 -15z"/>
<path d="M1640 650 c0 -5 11 -10 25 -10 l25 0 0 -173 c0 -179 -4 -197 -42
-197 -21 0 -23 11 -7 27 18 18 2 45 -23 41 -50 -7 -23 -88 29 -88 39 0 80 27
92 61 6 18 11 100 11 190 l0 159 -55 0 c-30 0 -55 -4 -55 -10z"/>
<path d="M1820 650 c0 -5 9 -10 20 -10 19 0 20 -7 20 -114 0 -109 -1 -114 -22
-121 -21 -7 -20 -8 9 -12 18 -2 50 -2 70 0 33 3 35 5 16 12 -22 7 -23 12 -23
131 l0 124 -45 0 c-25 0 -45 -4 -45 -10z"/>
<path d="M3420 650 c0 -5 9 -10 20 -10 19 0 20 -7 20 -114 0 -109 -1 -114 -22
-121 -21 -7 -20 -8 9 -12 18 -2 50 -2 70 0 33 3 35 5 16 12 -22 7 -23 12 -23
131 l0 124 -45 0 c-25 0 -45 -4 -45 -10z"/>
<path d="M3840 650 c0 -5 7 -10 15 -10 12 0 15 -19 15 -114 0 -109 -1 -114
-22 -121 -21 -7 -20 -8 9 -12 18 -2 50 -2 70 0 33 3 35 5 16 12 -22 7 -23 12
-23 131 l0 124 -40 0 c-22 0 -40 -4 -40 -10z"/>
</g>
</svg>
